<svg width="132" height="40" viewBox="0 0 132 40" fill="none" xmlns="http://www.w3.org/2000/svg">
<path d="M30 8C31.1046 8 32 8.89543 32 10V30C32 31.1046 31.1046 32 30 32H10C8.89543 32 8 31.1046 8 30V10C8 8.89543 8.89543 8 10 8H30ZM10.5 9.5C9.94772 9.5 9.5 9.94772 9.5 10.5V29.5C9.5 30.0523 9.94772 30.5 10.5 30.5H29.5C30.0523 30.5 30.5 30.0523 30.5 29.5V10.5C30.5 9.94772 30.0523 9.5 29.5 9.5H10.5Z" fill="#46392D"/>
<path d="M24 12C26.2091 12 28 13.7909 28 16C28 18.2091 26.2091 20 24 20C26.2091 20 28 21.7909 28 24C28 26.2091 26.2091 28 24 28C21.7909 28 20 26.2091 20 24C20 26.2091 18.2091 28 16 28C13.7909 28 12 26.2091 12 24C12 21.7909 13.7909 20 16 20C13.7909 20 12 18.2091 12 16C12 13.7909 13.7909 12 16 12C18.2091 12 20 13.7909 20 16C20 13.7909 21.7909 12 24 12ZM16 21.5C14.6193 21.5 13.5 22.6193 13.5 24C13.5 25.3807 14.6193 26.5 16 26.5C17.3807 26.5 18.5 25.3807 18.5 24C18.5 23.8981 18.4923 23.7979 18.4805 23.6992C17.4936 23.2934 16.7053 22.5056 16.2998 21.5186C16.2015 21.5068 16.1015 21.5 16 21.5ZM24 21.5C23.8982 21.5 23.7979 21.5067 23.6992 21.5186C23.2936 22.5057 22.5057 23.2936 21.5186 23.6992C21.5067 23.7979 21.5 23.8982 21.5 24C21.5 25.3807 22.6193 26.5 24 26.5C25.3807 26.5 26.5 25.3807 26.5 24C26.5 22.6193 25.3807 21.5 24 21.5ZM20 17.5C18.6193 17.5 17.5 18.6193 17.5 20C17.5 21.3807 18.6193 22.5 20 22.5C21.3807 22.5 22.5 21.3807 22.5 20C22.5 18.6193 21.3807 17.5 20 17.5ZM16 13.5C14.6193 13.5 13.5 14.6193 13.5 16C13.5 17.3807 14.6193 18.5 16 18.5C16.1015 18.5 16.2014 18.4922 16.2998 18.4805C16.7055 17.4937 17.4937 16.7055 18.4805 16.2998C18.4922 16.2014 18.5 16.1015 18.5 16C18.5 14.6193 17.3807 13.5 16 13.5ZM24 13.5C22.6193 13.5 21.5 14.6193 21.5 16C21.5 16.1015 21.5068 16.2015 21.5186 16.2998C22.5056 16.7053 23.2934 17.4936 23.6992 18.4805C23.7979 18.4923 23.8981 18.5 24 18.5C25.3807 18.5 26.5 17.3807 26.5 16C26.5 14.6193 25.3807 13.5 24 13.5Z" fill="#46392D"/>
<path d="M117.54 28.0002V14.1025H113.023V12.3652H123.903V14.1025H119.386V28.0002H117.54Z" fill="#46392D"/>
<path d="M101.489 28.2177C96.9284 28.2177 93.5625 24.6998 93.5625 20.1831C93.5625 15.6663 96.9284 12.1484 101.489 12.1484C106.049 12.1484 109.415 15.6663 109.415 20.1831C109.415 24.6998 106.049 28.2177 101.489 28.2177ZM101.489 26.5239C104.92 26.5239 107.504 23.7878 107.504 20.1831C107.504 16.5783 104.92 13.8422 101.489 13.8422C98.0575 13.8422 95.4734 16.5783 95.4734 20.1831C95.4734 23.7878 98.0575 26.5239 101.489 26.5239Z" fill="#46392D"/>
<path d="M75.0195 28.0002V12.3652H77.0608L85.5948 25.0904V12.3652H87.4406V28.0002H85.3994L76.8653 15.2751V28.0002H75.0195Z" fill="#46392D"/>
<path d="M54.5625 28.0002L60.5993 12.3652H62.684L68.7208 28.0002H66.723L65.203 23.9177H58.0804L56.5603 28.0002H54.5625ZM58.7318 22.2022H64.5515L61.6417 14.363L58.7318 22.2022Z" fill="#46392D"/>
<path d="M41.041 28.0002V12.3652H46.0138C48.7716 12.3652 50.8129 14.2762 50.8129 16.9037C50.8129 19.5313 48.7716 21.4422 46.0138 21.4422H42.8868V28.0002H41.041ZM45.8618 19.705C47.7076 19.705 48.9019 18.5975 48.9019 16.9037C48.9019 15.2099 47.7076 14.1025 45.8618 14.1025H42.8868V19.705H45.8618Z" fill="#46392D"/>
</svg>
