<svg width="954" height="954" viewBox="0 0 954 954" fill="none" xmlns="http://www.w3.org/2000/svg">
<path d="M951.178 0.375C952.282 0.375 953.179 1.27043 953.179 2.375V951.178C953.179 952.282 952.283 953.177 951.179 953.178L2.375 953.178C1.27062 953.178 0.37507 952.282 0.375 951.178L0.375 2.375C0.375 1.27052 1.27056 0.375152 2.375 0.375L951.178 0.375ZM60.9307 59.9268C60.3786 59.9271 59.9307 60.3747 59.9307 60.9268L59.9307 892.629C59.9307 893.181 60.3787 893.629 60.9307 893.629L892.634 893.629C893.186 893.629 893.634 893.181 893.634 892.629L893.634 60.9268C893.634 60.3745 893.186 59.9268 892.634 59.9268L60.9307 59.9268ZM317.96 159.165C405.663 159.165 476.76 230.262 476.76 317.965C476.76 317.966 476.759 317.968 476.759 317.969H476.767L476.767 317.967C476.767 230.264 547.864 159.166 635.566 159.166C723.269 159.166 794.367 230.264 794.367 317.967C794.367 405.67 723.269 476.767 635.566 476.768C635.565 476.768 635.564 476.767 635.562 476.767L635.563 476.77L635.562 476.772C635.564 476.772 635.565 476.772 635.566 476.772C723.269 476.773 794.366 547.87 794.366 635.573C794.366 723.276 723.269 794.374 635.566 794.374C547.864 794.374 476.766 723.276 476.766 635.573C476.766 635.572 476.766 635.57 476.766 635.568L476.763 635.569C476.761 635.569 476.76 635.568 476.759 635.568C476.759 635.57 476.76 635.572 476.76 635.573C476.759 723.276 405.663 794.374 317.96 794.374C230.257 794.374 159.16 723.276 159.159 635.573C159.159 547.87 230.257 476.773 317.96 476.772L317.963 476.772V476.765L317.96 476.766C230.257 476.766 159.159 405.668 159.159 317.965C159.159 230.262 230.257 159.165 317.96 159.165ZM317.966 536.324C263.152 536.324 218.715 580.761 218.715 635.575C218.715 690.389 263.152 734.825 317.966 734.825C372.78 734.825 417.215 690.389 417.216 635.575C417.216 631.571 416.977 627.621 416.516 623.741C377.269 607.636 345.9 576.268 329.793 537.022C325.915 536.562 321.968 536.324 317.966 536.324ZM635.572 536.324C631.565 536.324 627.613 536.564 623.73 537.025C607.625 576.266 576.262 607.629 537.021 623.735C536.56 627.618 536.321 631.569 536.321 635.575C536.322 690.389 580.758 734.825 635.572 734.825C690.386 734.825 734.822 690.389 734.822 635.575C734.822 580.761 690.386 536.324 635.572 536.324ZM476.774 377.529C421.96 377.529 377.524 421.965 377.523 476.779C377.524 531.594 421.96 576.03 476.774 576.03C531.589 576.03 576.024 531.594 576.024 476.779C576.024 421.965 531.588 377.53 476.774 377.529ZM635.572 218.718C580.758 218.718 536.322 263.155 536.322 317.969C536.322 321.973 536.561 325.922 537.021 329.802C576.264 345.909 607.628 377.275 623.733 416.518C627.615 416.979 631.566 417.219 635.572 417.219C690.386 417.219 734.823 372.783 734.823 317.969C734.823 263.154 690.387 218.718 635.572 218.718ZM317.965 218.717C263.151 218.717 218.715 263.153 218.715 317.967C218.715 372.781 263.151 417.217 317.965 417.217C321.967 417.217 325.914 416.977 329.793 416.517C345.9 377.27 377.269 345.902 416.516 329.797C416.976 325.918 417.216 321.97 417.216 317.967C417.216 263.152 372.779 218.717 317.965 218.717Z" fill="#5C584B"/>
</svg>
