<svg width="33" height="123" viewBox="0 0 33 123" fill="none" xmlns="http://www.w3.org/2000/svg">
<path d="M0 53.8467C2.19355 53.6644 3.96774 53.2544 5.32258 52.6167C6.67742 51.9789 7.64516 51.0678 8.22581 49.8833C8.87097 48.6078 9.19355 47.15 9.19355 45.51C9.19355 43.3233 9.03226 40.7722 8.70968 37.8567C8.3871 34.9411 8.03226 31.9344 7.64516 28.8367C7.32258 25.7389 7.16129 22.8233 7.16129 20.09C7.16129 13.6211 8.87097 8.65555 12.2903 5.19333C15.7742 1.73111 20.3226 0 25.9355 0H33V15.7167H29.2258C27.1613 15.7167 25.6774 16.2633 24.7742 17.3567C23.871 18.3589 23.4194 19.9078 23.4194 22.0033C23.4194 23.9167 23.5484 26.2856 23.8065 29.11C24.129 31.9344 24.4194 34.85 24.6774 37.8567C24.9355 40.8633 25.0645 43.6422 25.0645 46.1933C25.0645 50.1111 24.2258 53.4367 22.5484 56.17C20.9355 58.9033 18.3548 60.6344 14.8065 61.3633V61.6367C18.3548 62.4567 20.9355 64.1878 22.5484 66.83C24.2258 69.4722 25.0645 72.7978 25.0645 76.8067C25.0645 79.2667 24.9355 82 24.6774 85.0067C24.4194 88.0133 24.129 90.9289 23.8065 93.7533C23.5484 96.5778 23.4194 98.9467 23.4194 100.86C23.4194 102.864 23.871 104.413 24.7742 105.507C25.6774 106.6 27.1613 107.147 29.2258 107.147H33V123H25.9355C20.3226 123 15.7742 121.269 12.2903 117.807C8.87097 114.344 7.16129 109.379 7.16129 102.91C7.16129 100.086 7.32258 97.17 7.64516 94.1633C8.03226 91.0656 8.3871 88.0589 8.70968 85.1433C9.03226 82.2278 9.19355 79.6767 9.19355 77.49C9.19355 75.85 8.87097 74.4378 8.22581 73.2533C7.64516 72.0689 6.67742 71.1122 5.32258 70.3833C3.96774 69.6544 2.19355 69.2444 0 69.1533V53.8467Z" fill="#46392D"/>
</svg>
