<svg width="123" height="40" viewBox="0 0 123 40" fill="none" xmlns="http://www.w3.org/2000/svg">
<path d="M21.4201 18.5375C21.3733 17.9209 21.2665 17.3226 21.1038 16.7608L21.0641 16.6247L20.9908 16.5061C20.9496 16.4384 20.9244 16.3624 20.9133 16.2628C20.8777 15.9648 20.7974 15.6455 20.6696 15.292C20.627 14.8313 20.4637 14.3995 20.1816 14.0034C20.005 13.7571 19.85 13.5153 19.7209 13.2835C19.4828 12.8585 19.2225 12.4996 18.946 12.2176C18.687 11.9538 18.4189 11.7265 18.1488 11.5417C17.9009 11.3722 17.6503 11.2194 17.4032 11.0864C17.2182 10.9875 17.0402 10.8773 16.8733 10.7587C16.5948 10.5557 16.3065 10.3923 16.014 10.2714C15.7515 10.1634 15.3368 10.0311 14.7455 9.86618C14.5591 9.80916 14.3322 9.74682 14.0502 9.67612C13.7172 9.59325 13.3982 9.54916 13.1029 9.54688H13.0945C12.8145 9.54688 12.5088 9.56208 12.1842 9.59097L9.02662 9.87606C8.73551 9.90267 8.47721 10.0585 8.25661 10.3413C8.13444 10.4987 8.05625 10.6834 8.02693 10.8781C7.99203 11.0613 7.99552 11.2567 8.01227 11.4809L8.03391 11.7668C8.02903 12.0123 8.04997 12.2526 8.09605 12.4814C8.12188 12.6099 8.14003 12.7437 8.1505 12.8805L8.15189 12.9018L8.15469 12.9231C8.21403 13.4355 8.26499 13.8954 8.30548 14.29C8.34527 14.6808 8.38576 15.1369 8.42416 15.6463C8.44859 15.9633 8.47791 16.275 8.51072 16.5715C8.54353 16.8642 8.57983 17.1409 8.62032 17.3948L8.65732 17.8814C8.66849 18.0243 8.66361 18.095 8.66081 18.1193L8.65872 18.1391L8.65732 18.1589C8.63429 18.5109 8.64057 18.9153 8.67757 19.395L8.78717 20.8379L8.78996 20.8608C8.84302 21.304 8.87583 21.7312 8.887 22.1319V22.144C8.887 22.1653 8.8863 22.1942 8.8849 22.2269C8.87932 22.3599 8.88211 22.4975 8.89328 22.6473L8.93517 23.1977L8.95611 23.2836C8.98683 23.4076 8.99311 23.5421 8.97636 23.6926C8.93587 24.0477 8.93936 24.3936 8.98753 24.7228C8.98892 24.7524 8.98892 24.7805 8.98753 24.8026C8.97845 24.9653 8.99241 25.1303 9.03011 25.2945C9.03779 25.4268 9.03919 25.5583 9.0357 25.6852C9.02662 25.9551 9.04687 26.2212 9.09503 26.4751L9.28562 27.6208L9.27864 27.6588C9.22209 27.9682 9.22628 28.2662 9.2905 28.5422C9.29749 28.5726 9.29958 28.6015 9.29749 28.6334L9.2919 28.714L9.44409 30.7104C9.45805 30.8898 9.5125 31.0639 9.61163 31.2418L9.68354 31.3711C9.79035 31.5642 9.94952 31.7261 10.1569 31.8523L10.3998 31.9998L11.0225 31.9435C11.2382 31.9238 11.514 31.8933 11.8679 31.8492C12.21 31.8059 12.5653 31.7565 12.9248 31.701C13.2795 31.6455 13.6236 31.5915 13.9601 31.5383C14.2896 31.4859 14.5654 31.4372 14.7804 31.3946C15.0122 31.3574 15.2335 31.235 15.5078 31.054C15.7124 30.9187 15.9337 30.7659 16.1675 30.5987C16.4007 30.4306 16.608 30.2786 16.7993 30.1341C17.0276 29.9616 17.1239 29.8947 17.1609 29.8696L17.2301 29.8232L17.2908 29.7647C17.3725 29.6856 17.4849 29.5739 17.6287 29.4286C17.7837 29.2713 17.9449 29.0934 18.1055 28.9003C18.2535 28.7231 18.3966 28.5453 18.5313 28.3727L18.805 28.0207L18.8231 27.9964C19.1464 27.5531 19.3362 27.3365 19.4403 27.2308C19.7474 26.9183 19.9743 26.4728 20.1153 25.9072C20.1244 25.8875 20.1433 25.8472 20.1789 25.7795C20.2654 25.6168 20.3541 25.4427 20.442 25.2625C20.5223 25.0983 20.6033 24.928 20.6829 24.757C20.7862 24.5335 20.8469 24.3738 20.8812 24.2294C20.93 24.0431 20.9649 23.9367 20.9873 23.8766C21.0285 23.7633 21.0703 23.6508 21.1122 23.5376L21.1185 23.5201C21.1904 23.3239 21.2414 23.1012 21.27 22.8587C21.2944 22.6549 21.3063 22.3987 21.3063 22.0749V22.0612C21.3035 21.8004 21.3224 21.5328 21.3628 21.2629C21.4187 20.8904 21.4278 20.5156 21.3894 20.1469C21.4529 19.6444 21.4627 19.1038 21.4201 18.5367V18.5375ZM15.5965 18.6135C15.6021 19.1183 15.6209 19.5927 15.6537 20.0222L15.7082 20.7346L15.7201 20.7802C15.7215 20.8212 15.7222 20.9269 15.7047 21.1398C15.6628 21.6575 15.667 21.8567 15.6768 21.9836C15.6796 22.0194 15.681 22.1266 15.6363 22.3387C15.5846 22.5835 15.5434 22.7743 15.5134 22.9119C15.445 23.1871 15.3822 23.4752 15.3277 23.7671C15.2886 23.9755 15.2377 24.1549 15.1776 24.3008L15.1567 24.351L15.1413 24.4035C15.061 24.6726 14.9759 24.9379 14.8879 25.1903C14.8656 25.2542 14.7979 25.3887 14.594 25.5765L14.5724 25.597C14.2247 25.9384 13.8924 26.1954 13.5839 26.3611C13.498 26.4075 13.403 26.4508 13.299 26.4903C13.2774 26.2455 13.2564 25.9878 13.2355 25.7172C13.181 24.9995 13.1433 24.3677 13.1238 23.8447C13.1063 23.3239 13.061 22.8016 12.9884 22.2923C12.9283 21.8704 12.9004 21.4423 12.9053 21.0196L12.9074 20.8661L12.8662 20.7186C12.8048 20.4974 12.7734 20.2837 12.772 20.0815C12.7699 19.7493 12.7454 19.4133 12.6987 19.0841C12.6938 19.0035 12.691 18.9161 12.691 18.821C12.691 18.6705 12.6868 18.5344 12.6784 18.4059C12.6784 17.8525 12.6477 17.3044 12.5849 16.7737C12.5283 16.2963 12.485 15.8637 12.4564 15.4874C12.432 15.1635 12.3985 14.8024 12.3587 14.4147C12.3447 14.2847 12.3363 14.1722 12.3321 14.0756C12.5528 14.0878 12.6603 14.1136 12.6994 14.1258L12.7203 14.1319C13.373 14.3136 13.6718 14.4185 13.8065 14.474C13.9057 14.515 13.9978 14.5857 14.0886 14.6899L14.106 14.7097C14.4774 15.1133 14.7979 15.4889 15.0583 15.8272C15.2258 16.0446 15.3417 16.3533 15.4038 16.7441L15.4199 16.9562L15.4275 17.0033C15.5344 17.6465 15.5909 18.1878 15.5958 18.6127L15.5965 18.6135Z" fill="#272934"/>
<path d="M34.4375 30.8309C34.4214 30.6416 34.3795 30.4478 34.3076 30.2364C34.2769 30.1444 34.2525 30.0547 34.2357 29.9688L34.226 29.9209L34.2127 29.8746C34.1464 29.6579 34.0919 29.4541 34.05 29.2671C33.9963 29.0345 33.9265 28.8034 33.8434 28.5814C33.8204 28.4909 33.7973 28.3997 33.7736 28.3054C33.7478 28.2051 33.7219 28.1055 33.6968 28.0059C33.6472 27.7657 33.5788 27.5315 33.4909 27.3072C33.4329 27.1613 33.3799 27.0047 33.3324 26.8427C33.2298 26.4444 33.1495 26.0756 33.0936 25.7472C33.0287 25.3686 32.9359 24.9429 32.8186 24.4822L32.7983 24.4024L32.7648 24.3279C32.7069 24.1979 32.6594 24.0625 32.6231 23.9249C32.5805 23.7668 32.5414 23.5957 32.5058 23.4163L32.4954 23.3631L32.1219 22.1825L31.8817 20.8779L31.8726 20.8437C31.8587 20.7905 31.8503 20.7395 31.8461 20.6848C31.8301 20.494 31.7854 20.3123 31.7121 20.142C31.6527 19.8964 31.5962 19.6585 31.5431 19.4296C31.5047 19.2669 31.4384 18.9393 31.3435 18.3083L31.3414 18.2938L31.3386 18.2794C31.2744 17.9251 31.2067 17.5655 31.1361 17.2082C31.0635 16.8418 30.9895 16.5058 30.9183 16.2085L30.9148 16.1948C30.8653 16.0025 30.8304 15.8466 30.8094 15.7288C30.771 15.5144 30.7201 15.3472 30.6482 15.2073L30.5386 14.9138L30.1958 13.3204L29.9773 12.3108L29.9228 12.0774L29.8481 11.5437L29.8391 11.5171C29.8419 11.3399 29.8132 11.159 29.7518 10.9773L29.5738 10.4459L27.7329 10.2262C27.624 10.2133 27.5116 10.2072 27.395 10.2095C27.1849 10.2133 26.965 10.2809 26.7234 10.4178L26.5545 10.512L26.44 10.6762C26.3562 10.7964 26.2899 10.9089 26.2403 11.0153L26.1573 11.0883L26.0763 11.3247C26.0281 11.4669 25.982 11.5878 25.9422 11.6843C25.8906 11.8052 25.8319 11.9375 25.767 12.0774L25.76 12.0918L25.7538 12.1063C25.7021 12.2271 25.6511 12.3488 25.6009 12.4689C25.5555 12.5761 25.5108 12.6833 25.4654 12.7905C25.344 13.0147 25.2351 13.2367 25.1422 13.4488C25.064 13.6267 24.9712 13.8145 24.8672 14.0053C24.7087 14.2957 24.6158 14.5033 24.5649 14.6774C24.5404 14.7618 24.5153 14.8416 24.4923 14.9093C24.4664 14.986 24.435 15.0765 24.3959 15.1822C24.3757 15.2392 24.3282 15.3563 24.2214 15.595L23.3613 17.3025C23.2434 17.5237 23.1414 17.7609 23.0584 18.0072C22.9962 18.1889 22.9313 18.3607 22.8643 18.5196C22.687 18.94 22.5934 19.0989 22.5592 19.1491C22.4447 19.324 22.361 19.4684 22.3079 19.6121C22.2856 19.6524 22.2402 19.7299 22.155 19.8691C22.0056 20.1108 21.8618 20.4073 21.718 20.7753C21.593 20.9851 21.4457 21.2246 21.281 21.4868C21.0723 21.8198 20.8921 22.165 20.7455 22.5109C20.5745 22.9001 20.3958 23.2901 20.2178 23.668C20.0286 24.0671 19.845 24.4685 19.6719 24.8638L18.6694 26.9119C18.5723 27.0776 18.4788 27.251 18.3901 27.4266C18.3273 27.552 18.2533 27.6737 18.1702 27.7877L18.0215 27.993L18.0013 28.1967C17.995 28.2127 17.9838 28.2378 17.9671 28.2727C17.9105 28.3875 17.8652 28.4947 17.8316 28.5951C17.7325 28.7289 17.6397 28.9007 17.6166 29.1272C17.5754 29.5347 17.7842 29.8168 17.8952 29.9681L18.113 30.263L20.2736 30.5208L20.3741 30.4318C20.6555 30.3854 20.9054 30.2121 21.0743 29.9384L21.9651 28.5419L22.2465 27.9542C22.2646 27.9177 22.31 27.8341 22.414 27.6752C22.5117 27.5262 22.613 27.3795 22.7149 27.2396L23.0535 26.772C23.1163 26.6846 23.1736 26.6002 23.2231 26.5181L23.2915 26.5082C23.2992 26.5082 23.3725 26.5006 23.6175 26.5059C23.6594 26.5075 23.6908 26.509 23.7139 26.5113C23.8884 26.6025 24.0539 26.6565 24.2165 26.6762C24.3366 26.6907 24.4546 26.6854 24.567 26.661C24.5795 26.661 24.6137 26.661 24.6801 26.6686L24.8818 26.693C25.5192 26.769 26.0072 26.8222 26.3737 26.8549C26.759 26.8899 27.048 26.9142 27.2554 26.9279C27.4844 26.9438 27.654 26.9522 27.7713 26.9552C27.8537 26.9568 27.9304 26.9621 28.001 26.9704L28.6914 27.0526C28.7738 27.0624 28.8498 27.0769 28.9183 27.0974C29.0195 27.1316 29.1291 27.162 29.2464 27.1886C29.3022 27.3042 29.3748 27.4334 29.467 27.5802C29.527 27.7953 29.6373 28.0264 29.8083 28.2948C29.9131 28.4605 29.9515 28.5441 29.9633 28.5723L29.9703 28.6057L30.001 28.6985C30.0283 28.7775 30.0548 28.8566 30.0799 28.9296C30.1023 28.9942 30.1239 29.0702 30.1469 29.1569L30.1637 29.2223L30.1888 29.2839C30.3626 29.705 30.5428 30.0715 30.7243 30.371C30.836 30.5565 30.9176 30.7397 30.9644 30.9153L31.1222 31.4977L31.6765 31.5638C31.791 31.5775 31.9236 31.5874 32.0849 31.5942C32.1952 31.598 32.3299 31.6102 32.4856 31.6292L32.975 31.6877C32.9826 31.6885 33.0127 31.6931 33.0706 31.7128C33.2172 31.763 33.3666 31.7972 33.5153 31.8147L34.5324 31.9363L34.441 30.8271L34.4375 30.8309ZM25.5255 22.8454C25.7237 22.4858 25.922 22.1232 26.1147 21.7659L26.1244 21.7484L26.1335 21.7309C26.2103 21.5727 26.2941 21.4275 26.3827 21.2991C26.5049 21.1212 26.6313 20.9205 26.7611 20.703L26.7744 20.6802L26.7869 20.6567C26.8616 20.513 26.937 20.3708 27.0131 20.2332L27.0536 20.3579C27.0774 20.532 27.1053 20.6802 27.1388 20.8072L27.1472 20.8429L27.927 23.1366C27.9311 23.1563 27.936 23.1753 27.9402 23.1951C27.5995 23.1214 27.2756 23.0659 26.9775 23.0309C26.8979 23.021 26.8191 23.0126 26.7416 23.0066C26.4142 22.9777 26.0826 22.9435 25.7565 22.9047C25.7098 22.8994 25.6602 22.8872 25.6023 22.869C25.5771 22.8606 25.5513 22.8538 25.5262 22.8469L25.5255 22.8454Z" fill="#272934"/>
<path d="M47.491 15.8799C47.5168 15.496 47.5182 15.1219 47.4931 14.7646C47.4616 14.3085 47.3716 13.9428 47.218 13.6463L47.2103 13.6319C47.1894 13.3574 47.1189 13.1073 46.9988 12.8868C46.9304 12.7621 46.8766 12.6268 46.8368 12.4809C46.7412 12.1349 46.5737 11.8308 46.3363 11.5762C46.1813 11.3063 45.9726 11.0524 45.7108 10.8205C45.4455 10.5841 45.1523 10.375 44.8403 10.1994L44.8228 10.1902L44.8012 10.1796C44.8012 10.1796 44.7467 10.1507 44.5841 10.0428C44.4486 9.95381 44.2936 9.84814 44.1226 9.72878C43.9418 9.60182 43.7617 9.48246 43.5851 9.37147C43.3421 9.22094 43.169 9.13048 42.9763 9.10007C42.9665 9.0955 42.9484 9.08638 42.9233 9.07118C42.7138 8.9427 42.4848 8.84615 42.2412 8.78305L42.2224 8.77848L42.2035 8.77468C41.9606 8.72375 41.7225 8.67281 41.4887 8.62264C41.3853 8.60059 41.2869 8.58386 41.1961 8.57322C41.1166 8.5641 41.0405 8.55878 40.9672 8.55802L40.868 8.54661L40.8003 8.52304C40.5658 8.44322 40.3759 8.38772 40.2153 8.35427C40.068 8.3231 39.8984 8.29649 39.7127 8.27445L38.3255 8.11099C38.0868 8.08287 37.862 8.0707 37.6547 8.07374C37.6547 8.07374 37.3405 8.07906 37.2093 8.0821C36.9949 8.0593 36.8134 8.05322 36.655 8.06614C36.5935 8.07146 36.5377 8.0707 36.4888 8.06462L35.9366 8L35.6371 8.51012C35.4912 8.75644 35.441 9.05825 35.4898 9.35931C35.4738 9.53948 35.45 9.84966 35.4333 10.0899C35.4075 10.4434 35.3732 10.7399 35.3328 10.9725L35.3258 11.0121L35.0026 14.2697L35.0095 14.364C35.0165 14.4468 35.0186 14.5343 35.0179 14.6202C35.0158 14.7182 35.0109 14.8087 35.0032 14.8878L34.8469 16.4668C34.8092 16.8446 34.7792 17.2019 34.7575 17.525C34.7359 17.8436 34.708 18.1781 34.6737 18.5187C34.6591 18.6662 34.6333 18.8144 34.5956 18.9588C34.5355 19.1953 34.4985 19.4446 34.4874 19.7024C34.4224 19.9555 34.3889 20.1729 34.3847 20.363C34.3847 20.3668 34.3784 20.4694 34.3051 20.7728L34.2891 20.8359L33.8758 24.3588L33.8339 25.3753L33.7376 25.7691L33.3906 28.8959L33.628 29.2168C33.7753 29.4159 33.9987 29.7178 34.3987 29.7641H34.4029C34.6172 29.8804 34.8441 29.9527 35.0793 29.98L35.7418 30.0576C35.9387 30.0804 36.1363 30.11 36.331 30.1435C36.3876 30.1526 36.4434 30.161 36.5 30.1678C36.7255 30.1944 36.9586 30.199 37.1946 30.1807C37.2986 30.1739 37.3922 30.1709 37.4759 30.1724C37.5674 30.1731 37.603 30.1762 37.603 30.1762L38.4945 30.2811L38.7074 28.1342C38.7332 27.8749 38.7598 27.656 38.7884 27.4644C38.8226 27.2356 38.8505 27.0098 38.8722 26.7946C38.8994 26.5202 38.9364 26.2404 38.9811 25.9599C39.0523 26.0496 39.127 26.1446 39.1758 26.21C39.2896 26.3902 39.4397 26.6236 39.6205 26.9026C39.8418 27.2447 40.1008 27.5891 40.3898 27.9236C40.6328 28.2041 40.8555 28.4824 41.0523 28.7477C41.2876 29.067 41.3825 29.2297 41.4181 29.2981L41.4419 29.343L41.4684 29.3848C41.6346 29.6379 41.8398 29.9093 42.0799 30.1906C42.2272 30.3647 42.3117 30.4651 42.3592 30.5221C42.4416 30.684 42.5519 30.8307 42.6859 30.9539L43.0384 31.686L43.805 31.3211C44.1903 31.1371 44.5226 30.9174 44.7949 30.665C45.0602 30.4187 45.2703 30.1731 45.4378 29.9147L45.775 29.3962L45.4769 28.8511C45.3883 28.6891 45.3087 28.5227 45.2382 28.3531C45.1425 28.122 45.0162 27.8582 44.864 27.5686L44.8277 27.5001L44.7823 27.4393C44.7739 27.4279 44.767 27.4188 44.7635 27.4127C44.7314 27.3268 44.6755 27.1945 44.5429 26.917L44.4828 26.7916L44.3963 26.6943C44.3858 26.6791 44.3132 26.5749 44.1826 26.2594C43.999 25.8154 43.8287 25.5083 43.6472 25.2962C43.3938 24.9799 43.2744 24.8005 43.2186 24.704C43.0915 24.4873 42.9044 24.2235 42.6454 23.8989C42.4995 23.6777 42.3683 23.4876 42.2426 23.3181L42.0374 23.0398C42.2615 23.0474 42.4807 23.0048 42.6901 22.9151C42.7292 22.8984 42.822 22.8733 43.0056 22.8946L43.3742 22.9379L43.6639 22.6848C43.6961 22.6574 43.7289 22.6376 43.7694 22.6224C43.9886 22.5419 44.1924 22.4248 44.3746 22.275C44.4751 22.2066 44.568 22.1366 44.6511 22.0644L44.8047 22.0013L45.2249 21.5923C45.7136 21.159 46.0934 20.6823 46.3524 20.1737L46.3607 20.157C46.3824 20.1129 46.4236 20.0376 46.4969 19.9297C46.6421 19.7153 46.7426 19.5062 46.8054 19.2918L46.8103 19.2736C46.8717 19.0463 46.9311 18.8479 46.9848 18.6806C47.047 18.4898 47.1105 18.2807 47.1789 18.0443L47.195 17.9895L47.204 17.9333C47.2536 17.6505 47.3067 17.3365 47.3604 16.9997C47.4205 16.6242 47.463 16.2494 47.4875 15.8829L47.491 15.8799ZM40.3242 17.2278C40.2195 17.227 40.1113 17.2764 39.9975 17.376L39.4732 17.3144L39.8132 13.8881C39.8153 13.866 39.8286 13.8341 39.8537 13.7915C39.9033 13.7071 39.9591 13.6676 40.0219 13.6752C40.1818 13.7398 40.3403 13.8204 40.4966 13.9177C40.653 14.0165 40.7975 14.1405 40.9281 14.291C40.9846 14.3434 41.037 14.3944 41.0844 14.4453C41.1305 14.4962 41.1801 14.5822 41.2304 14.7007C41.3078 14.7555 41.3407 14.8498 41.3274 14.9843C41.3253 15.2101 41.3106 15.4633 41.2827 15.743C41.2548 16.0228 41.2066 16.2942 41.1396 16.5588C41.0831 16.7108 41.016 16.8112 40.9385 16.8575C40.8611 16.9054 40.7549 16.9784 40.6209 17.075C40.5274 17.1776 40.4289 17.2285 40.3249 17.2278H40.3242Z" fill="#272934"/>
<path d="M62.9188 28.526L62.6989 28.1368C62.5767 27.9201 62.4196 27.7323 62.2305 27.5765C62.139 27.502 62.0462 27.4214 61.9519 27.3347C61.8172 27.2123 61.6594 27.1029 61.4653 26.9957C61.3941 26.9569 61.3313 26.9128 61.2782 26.8641L61.1379 26.7349L60.9613 26.6817C60.9452 26.6771 60.8552 26.6452 60.673 26.5045C60.4803 26.3563 60.3239 26.2354 60.2025 26.1434C59.9979 25.9587 59.7682 25.7755 59.5016 25.5831C59.2726 25.4189 59.0387 25.238 58.8076 25.0441L58.7134 24.9651L58.6031 24.9179C58.5368 24.8898 58.4628 24.8556 58.3797 24.8145C58.3692 24.8092 58.3532 24.8001 58.3308 24.7811C58.0865 24.5355 57.8275 24.3569 57.5573 24.2482C57.5141 24.2307 57.4896 24.217 57.4778 24.2101L57.4331 24.1585L56.3999 23.3868C56.0774 23.1466 55.7241 22.9367 55.3499 22.7604C55.1552 22.641 54.9436 22.4867 54.7223 22.2997C54.5394 22.1453 54.3586 22.0062 54.182 21.8831C54.2085 21.8435 54.2372 21.804 54.2679 21.7645C54.3817 21.617 54.4989 21.4695 54.6176 21.3273C54.7461 21.1722 54.8731 21.0035 54.996 20.824C55.093 20.713 55.2145 20.5359 55.4281 20.1786C55.6145 19.8669 55.8051 19.5377 55.995 19.1987C56.2002 18.8626 56.4062 18.5334 56.6072 18.2187C56.8411 17.8523 57.0596 17.4607 57.2565 17.0555L57.2599 17.0487C57.3821 16.7917 57.5001 16.5279 57.6111 16.2634C57.6935 16.0665 57.787 15.8802 57.891 15.7076C58.0327 15.5092 58.1486 15.2583 58.2443 14.9413C58.3008 14.7543 58.3706 14.5665 58.453 14.3825L58.4684 14.3491L58.474 14.3346C58.4858 14.3088 58.5235 14.2274 58.6345 14.007C58.7567 13.7637 58.8851 13.5014 59.0164 13.2293C59.1497 12.9518 59.2747 12.6918 59.3913 12.447C59.5728 12.0661 59.6733 11.7871 59.6489 11.4875L59.6342 11.3051L59.556 11.1432C59.3682 10.7532 59.1288 10.4605 58.8426 10.2712C58.6813 10.1655 58.5137 10.0629 58.3427 9.96707C58.1081 9.81426 57.9092 9.69262 57.734 9.59531C57.5511 9.4942 57.4666 9.44022 57.4324 9.41665L56.9269 9.07227L56.4627 9.47899C56.3782 9.55274 56.2854 9.64853 56.1779 9.77245C56.0466 9.92373 55.9496 10.0636 55.8826 10.1989L55.5852 10.7912L54.1094 13.6732C53.9677 13.9302 53.8295 14.2024 53.6989 14.4814C53.5837 14.7269 53.4623 14.9656 53.3387 15.1907L53.3254 15.215L53.3136 15.2401C53.2081 15.4613 53.0985 15.6727 52.9896 15.8688C52.8682 16.0855 52.7628 16.3166 52.6755 16.5561C52.51 16.7773 52.3711 17.0122 52.2608 17.254C52.1736 17.4448 52.0821 17.6348 51.9893 17.8196L51.9753 17.8469L51.9634 17.8751C51.8447 18.1548 51.7428 18.3077 51.6779 18.3875C51.6011 18.4817 51.5236 18.5912 51.4454 18.7167C51.4391 18.4795 51.428 18.2005 51.4119 17.8751V17.8599L51.4098 17.8447C51.3637 17.2699 51.3219 16.6883 51.2856 16.1151C51.25 15.5586 51.2458 14.9953 51.2737 14.4418L51.2772 14.3772L51.2241 13.7158C51.2088 13.5273 51.2011 13.3767 51.2004 13.265C51.199 13.1373 51.199 13.024 51.2004 12.9229C51.2018 12.7868 51.1976 12.65 51.1864 12.5169C51.1753 12.3763 51.1508 12.2121 51.1096 12.0015L51.0489 11.689L50.822 11.486C50.5449 11.2382 50.2286 11.2511 49.9208 11.264C49.7169 11.2732 49.4984 11.2838 49.2645 11.2944C49.0356 11.3058 48.8261 11.3157 48.6335 11.3233C48.5259 11.3279 48.4533 11.3309 48.4031 11.3332C48.3151 11.3173 48.223 11.3142 48.1266 11.3233C47.9305 11.3423 47.802 11.372 47.6847 11.4267L47.6743 11.432C47.4907 11.5202 47.3608 11.6594 47.1989 11.8699L46.9629 12.1756L47.194 14.1514C47.2107 14.3574 47.2386 14.6395 47.2763 14.99C47.3147 15.3518 47.3489 15.7183 47.3783 16.0786C47.4076 16.439 47.4299 16.778 47.4453 17.0859C47.453 17.2486 47.4634 17.4478 47.4711 17.5793C47.4474 17.8363 47.4669 18.1009 47.5298 18.3677C47.5577 18.4848 47.5772 18.5965 47.5877 18.6999C47.5828 18.8687 47.5828 19.0367 47.5863 19.1979C47.5905 19.3803 47.6003 19.5689 47.6156 19.7597C47.6442 20.117 47.6833 20.469 47.7301 20.8043C47.7727 21.1114 47.8062 21.414 47.8292 21.7021L47.8977 22.5551C47.9074 22.9177 47.927 23.2766 47.9542 23.621C47.9835 23.9874 48.0338 24.3538 48.1036 24.7104C48.1371 24.9385 48.1587 25.1597 48.1678 25.365C48.1783 25.6242 48.195 25.8941 48.2188 26.1913C48.3012 27.2131 48.4003 28.1398 48.5148 28.9457C48.6439 29.8633 48.6656 30.3217 48.6614 30.5445L48.66 30.5946L48.6642 30.6448C48.6844 30.9003 48.7801 31.1336 48.935 31.3169L49.1417 31.8315L49.7407 31.7745C49.8733 31.7616 49.9857 31.7555 50.0764 31.7555C50.1379 31.7555 50.2014 31.7517 50.2663 31.7456C50.3822 31.7342 50.503 31.7145 50.6356 31.6848C50.7452 31.6635 50.8437 31.6483 50.9295 31.6407C50.9693 31.6369 51.007 31.6346 51.044 31.6339C51.2171 31.6293 51.4287 31.6149 51.6737 31.5913L52.2811 31.5335L52.4919 31.082C52.6371 30.771 52.7076 30.451 52.7006 30.1271C52.6964 29.9386 52.6867 29.75 52.672 29.5676C52.6301 29.0445 52.6064 28.5222 52.6029 28.0151C52.5994 27.5902 52.5896 27.1568 52.5736 26.722C52.6769 26.8003 52.7739 26.8702 52.8605 26.9318C52.9889 27.023 53.139 27.1105 53.3184 27.2002L53.338 27.2101L53.3575 27.2184C53.5209 27.2891 53.6724 27.3682 53.8064 27.4533C54.0019 27.5773 54.2134 27.6898 54.4354 27.7878L56.795 29.1646L56.8174 29.176C57.0708 29.3038 57.3067 29.4414 57.5196 29.5858C57.8115 29.7835 58.1158 29.9264 58.4265 30.0138C58.5005 30.0526 58.5919 30.0974 58.7064 30.1507C58.8879 30.2343 58.941 30.2655 58.9466 30.2693L59.0555 30.3346L59.1769 30.3628C59.2921 30.3894 59.3529 30.4122 59.3794 30.4236C59.5183 30.5422 59.7103 30.6676 59.9895 30.8227C60.0503 30.8683 60.1061 30.9139 60.1564 30.9603C60.4084 31.1907 60.7219 31.3009 61.0374 31.2712L61.8716 31.1914L61.8263 30.6273L61.8681 30.5734C61.9903 30.4145 62.1069 30.2236 62.2172 30.0062C62.2737 29.8929 62.3547 29.7683 62.4587 29.6345C62.5837 29.4725 62.6793 29.2756 62.7429 29.0483L62.7512 29.0187L62.7575 28.989C62.7624 28.967 62.7659 28.9556 62.7659 28.9556L62.9202 28.5314L62.9188 28.526Z" fill="#272934"/>
<path d="M91.1021 27.1915L91.0911 27.1717C91.0743 27.1404 91.0574 27.1099 91.0406 27.078L90.9745 26.9517L90.9168 26.897L90.7107 26.5046L89.1139 26.6238L89.0756 26.6309C88.8663 26.6699 88.6349 26.699 88.388 26.7175C88.2616 26.7267 88.1288 26.7338 87.9927 26.7381C87.6026 26.7501 87.2273 26.7253 86.8767 26.665L86.7905 26.6501L85.2079 26.7679C85.0446 26.7232 84.8826 26.7061 84.7245 26.7182C84.6422 26.7246 84.5605 26.7381 84.4821 26.7593C84.4717 26.7579 84.449 26.7544 84.4121 26.7409L84.2689 26.6905L83.6999 26.7331C83.6999 26.7196 83.6986 26.7061 83.6979 26.6919C83.6837 26.3399 83.6454 25.411 83.6454 25.411C83.6267 24.9703 83.6091 24.5452 83.5929 24.1329C83.5754 23.7057 83.5612 23.4005 83.5482 23.2018L83.5418 23.0968L83.5152 23.0081C83.5126 22.9946 83.5055 22.9484 83.4996 22.8519L83.4368 21.8385C83.4232 21.6171 83.3979 21.4354 83.3596 21.2772C83.3493 21.2346 83.3493 21.214 83.3486 21.214L83.37 21.1345L83.3771 21.0515C83.394 20.8571 83.3823 20.6307 83.3396 20.3369C83.3123 20.1517 83.2935 19.9806 83.2845 19.8288L83.1691 17.9787C83.1626 17.8765 83.1626 17.7636 83.1691 17.6402C83.1775 17.4656 83.1834 17.2491 83.1866 16.9972C83.1892 16.741 83.1879 16.4266 83.1834 16.0604C83.1782 15.6765 83.1581 15.2017 83.1237 14.6475L82.9682 12.1495L82.4517 11.9806C82.2158 11.9032 81.9857 11.8727 81.7686 11.889C81.6332 11.899 81.477 11.9224 81.2904 11.96C81.21 11.9763 81.0363 12.0019 80.665 12.0303C80.488 12.0338 80.3046 12.043 80.118 12.0565C79.9314 12.07 79.7259 12.0913 79.5231 12.1161C79.3442 12.1388 79.1841 12.1552 79.0474 12.1658C78.9204 12.175 78.8121 12.1793 78.7266 12.1779L77.8809 12.163L78.2989 18.8735C78.3118 19.0772 78.3358 19.3001 78.3702 19.5342C78.3883 19.6606 78.3941 19.7379 78.3954 19.7798C78.3397 20.0587 78.3501 20.3525 78.4246 20.6513C78.4272 20.6626 78.4421 20.7279 78.4518 20.8833L78.5147 21.8967C78.525 22.0678 78.5425 22.2076 78.5685 22.3282C78.5886 22.6745 78.6028 23.0336 78.6093 23.397C78.6164 23.8213 78.6514 24.2443 78.7123 24.6538L78.77 26.4237L78.7713 26.4514C78.7856 26.6841 78.8232 26.9055 78.8821 27.1092L78.8206 27.2355L78.9268 28.9472C78.9392 29.141 78.9573 29.356 78.9806 29.5845C79.0117 29.8932 79.0979 30.2246 79.2353 30.5695L79.4544 31.1188L81.0733 30.9982C81.3804 30.9755 81.7375 30.9272 82.1354 30.8555C82.4796 30.7931 82.7693 30.7533 82.9967 30.7363L83.0401 30.7328L83.0829 30.7242C83.1607 30.7086 83.2372 30.698 83.311 30.693C83.3473 30.6902 83.3836 30.6888 83.4206 30.6888C83.591 30.6866 83.755 30.6802 83.9092 30.6689L84.9286 30.593C85.0965 30.5802 85.2974 30.5965 85.5242 30.6412L85.6182 30.6597L87.1087 30.5482C87.4334 30.5241 87.7652 30.4943 88.0951 30.4595C88.4172 30.4255 88.8021 30.3822 89.2389 30.3304L90.5111 30.2353C90.7191 30.2197 91.2104 30.0941 91.2745 29.2616C91.2881 29.087 91.2875 28.8954 91.2745 28.6754L91.2408 28.1318C91.2292 27.9487 91.2337 27.8558 91.2369 27.816L91.2434 27.7451L91.2389 27.6741C91.2285 27.5059 91.1825 27.3441 91.1034 27.1922L91.1021 27.1915Z" fill="#272934"/>
<path d="M102.244 21.6635C102.298 21.2978 102.314 20.9557 102.291 20.6448C102.382 20.0791 102.412 19.4998 102.381 18.9213C102.354 18.4135 102.337 17.9155 102.33 17.4366C102.376 17.0428 102.31 16.5904 102.128 16.0582C101.979 15.6257 101.853 15.2737 101.742 14.984L101.732 14.9589L101.722 14.9354C101.67 14.8206 101.613 14.7043 101.551 14.5872C101.53 14.5484 101.524 14.5279 101.524 14.5256L101.519 14.5051L101.512 14.4845C101.408 14.1371 101.209 13.8079 100.921 13.5031C100.747 13.3199 100.675 13.2051 100.649 13.1526L100.633 13.1222L100.614 13.0925C100.476 12.8698 100.301 12.647 100.093 12.4273C99.9003 12.2251 99.7055 12.0442 99.5136 11.8906C99.3202 11.737 99.1331 11.6063 98.9551 11.5006C98.8113 11.417 98.7051 11.3562 98.6228 11.3136C98.4036 11.1798 98.2214 11.0696 98.0643 10.9768C97.8172 10.8308 97.5254 10.7236 97.1728 10.6491C96.8573 10.5822 96.5368 10.5267 96.2178 10.4819C95.8974 10.4378 95.5951 10.4097 95.3172 10.3967C95.024 10.3846 94.6785 10.399 94.2582 10.4408C93.7982 10.4864 93.4296 10.5754 93.1329 10.713L92.4411 10.9814L92.4201 10.992C92.3056 11.0437 92.1737 11.0992 92.0264 11.1577C91.8044 11.2467 91.6061 11.3539 91.4358 11.4786L91.419 11.4915L90.3949 12.327C89.9516 12.6965 89.5649 13.1541 89.2479 13.6863C88.9736 14.1462 88.6887 14.6754 88.4004 15.26C88.3523 15.3527 88.2971 15.4896 88.1784 15.8454C88.0953 16.0925 88.0095 16.3517 87.9173 16.6368C87.8287 16.9128 87.747 17.1583 87.6688 17.3856C87.5885 17.6198 87.5557 17.7004 87.5473 17.7209L87.518 17.7779L87.495 17.8524C87.3931 18.1709 87.3093 18.5108 87.2465 18.8643C87.1962 19.1456 87.1417 19.3995 87.0852 19.6207L87.0796 19.6405L87.0754 19.6595C86.9498 20.2464 86.8737 20.828 86.8506 21.3875C86.8276 21.9182 86.8108 22.4959 86.7997 23.1041L86.7969 23.2813L86.8548 23.4478C86.8744 23.5025 86.8799 23.5618 86.8751 23.6302C86.8499 23.9176 86.8688 24.2346 86.9302 24.5729C86.993 25.1872 87.1131 25.7923 87.2855 26.3724C87.4768 27.0156 87.7854 27.6184 88.2029 28.1658L89.169 29.4559C89.4169 29.8756 89.7164 30.2215 90.0612 30.4883C90.3419 30.7043 90.649 30.9262 90.9736 31.1482L90.9925 31.1612L91.0127 31.1733C91.1265 31.2425 91.2787 31.3056 91.5398 31.3907C91.7381 31.4554 91.9608 31.52 92.203 31.5823C92.4418 31.6439 92.677 31.6994 92.9018 31.7465L93.4652 31.8651L93.5029 31.8689C93.7277 31.894 93.9552 31.913 94.1793 31.9267C94.3895 31.9396 94.6233 31.9518 94.8949 31.9632H94.9144L94.9333 31.9647C95.0764 31.9632 95.2125 31.951 95.3368 31.9282C95.4359 31.91 95.5385 31.8857 95.6405 31.8553C95.9581 31.7815 96.252 31.6637 96.5138 31.5063C96.7344 31.3748 96.9585 31.2243 97.1826 31.0593C97.258 31.0038 97.3641 30.93 97.5058 30.8343C97.6803 30.7179 97.8507 30.5864 98.0119 30.4465C98.1536 30.3257 98.2765 30.2223 98.391 30.1295C98.553 29.9988 98.6758 29.8794 98.7715 29.7593C98.9837 29.5388 99.2015 29.2727 99.4389 28.9451C99.6727 28.6204 99.8961 28.2836 100.102 27.9446L100.59 27.1615C100.791 26.8506 100.925 26.5153 100.987 26.1641C101.008 26.0447 101.032 25.987 101.039 25.9695C101.252 25.6563 101.412 25.2822 101.513 24.8542C101.584 24.5554 101.64 24.2947 101.685 24.062C101.813 23.7724 101.902 23.5177 101.956 23.2836C102.004 23.0692 102.053 22.8206 102.103 22.5438C102.143 22.3173 102.189 22.0284 102.245 21.662L102.244 21.6635ZM95.6028 21.367C95.5267 21.7365 95.4101 22.1409 95.2544 22.5788C95.1406 22.6617 95.0464 22.7537 94.9689 22.8555C94.8921 22.9567 94.7846 23.0045 94.6492 22.9969C94.55 22.9977 94.4879 23.0167 94.4614 23.0532C94.4355 23.0912 94.3839 23.1011 94.3085 23.0851L94.0244 23.0251C93.8414 22.8373 93.7102 22.6374 93.6292 22.4275C93.5483 22.2185 93.5182 21.944 93.5392 21.6057L93.8149 20.0579C93.8442 19.8929 93.9113 19.7363 94.0167 19.5873C94.1214 19.4375 94.2387 19.2801 94.3657 19.1144L94.4907 19.0764C94.5326 19.0642 94.5738 19.0513 94.6164 19.0384C94.6575 19.0262 94.6973 19.0239 94.735 19.0315C94.9047 18.9608 95.0373 18.9342 95.1322 18.954C95.2272 18.9738 95.3515 19.0543 95.5029 19.1935C95.6586 19.3121 95.7612 19.4565 95.8094 19.6276C95.8576 19.7979 95.8674 19.9666 95.838 20.1316C95.7571 20.5855 95.6782 20.9968 95.6035 21.367H95.6028Z" fill="#272934"/>
<path d="M114.794 22.4081L114.755 22.2036C114.729 22.069 114.696 21.9223 114.655 21.7664C114.613 21.6136 114.567 21.4608 114.516 21.311C114.454 21.1286 114.373 20.972 114.271 20.8405C114.208 20.6762 114.15 20.5326 114.093 20.4033C113.975 20.138 113.801 19.8924 113.573 19.6735L113.561 19.6621C113.529 19.6317 113.504 19.6081 113.487 19.5906C113.373 19.3489 113.179 19.1717 112.973 19.0189C112.872 18.9269 112.751 18.841 112.597 18.7559C112.472 18.6875 112.343 18.619 112.213 18.5514C112.067 18.4769 111.923 18.41 111.781 18.3507C111.672 18.3051 111.587 18.2701 111.526 18.2435L111.466 18.2161L111.402 18.2001C111.156 18.137 110.956 18.0778 110.806 18.0215C110.761 18.0048 110.715 17.9896 110.671 17.9766C110.787 17.7782 110.897 17.5593 110.999 17.3236C111.203 16.961 111.328 16.5193 111.371 16.0061C111.41 15.5553 111.406 15.0839 111.361 14.6057C111.316 14.1344 111.234 13.6699 111.116 13.2251C110.997 12.7766 110.879 12.4208 110.754 12.1365L110.729 12.0802L110.696 12.0285C110.611 11.8894 110.507 11.748 110.38 11.6058C110.335 11.5557 110.299 11.5078 110.271 11.4644C110.131 11.2181 109.925 11.0121 109.655 10.8517C109.47 10.743 109.275 10.6479 109.077 10.5727C108.906 10.5081 108.749 10.4465 108.594 10.3834C108.458 10.3286 108.38 10.2823 108.34 10.2526L108.224 10.1697L108.092 10.131C107.938 10.0869 107.773 10.0648 107.596 10.0656C107.536 10.0663 107.459 10.0641 107.368 10.0572C107.234 10.0283 107.073 10.0131 106.87 10.0093L106.817 10.0078L106.764 10.0139C106.367 10.061 105.965 10.1036 105.565 10.1401C105.125 10.1819 104.696 10.248 104.291 10.3393L100.463 11.1991L100.632 12.0924C100.639 12.1289 100.652 12.2148 100.665 12.3874C100.679 12.5873 100.72 12.8237 100.788 13.1073C100.79 13.2137 100.799 13.3407 100.815 13.5034C100.837 13.7436 100.875 13.9975 100.929 14.2796C100.998 14.6468 101.08 15.0528 101.172 15.4853C101.256 15.8822 101.309 16.2304 101.33 16.5215L101.334 16.5778L101.345 16.6325C101.372 16.7777 101.396 16.926 101.415 17.0727C101.433 17.2118 101.445 17.3418 101.453 17.4604C101.46 17.7691 101.512 18.0549 101.604 18.3127C101.625 18.4085 101.652 18.5271 101.687 18.6669C101.731 18.8486 101.778 19.0463 101.828 19.2569C101.875 19.4568 101.917 19.6545 101.953 19.8453L102.045 20.3311L102.308 21.8729L102.417 22.4468C102.457 22.6567 102.508 22.8733 102.57 23.0915C102.665 23.4937 102.759 23.889 102.852 24.2676C102.921 24.5527 102.954 24.85 102.95 25.1533V25.17C102.951 25.5068 103.012 25.8337 103.132 26.1393C103.177 26.2541 103.204 26.3689 103.216 26.4913L103.22 26.5362L103.29 26.9041C103.319 27.0562 103.359 27.2021 103.409 27.3397C103.45 27.4948 103.479 27.6499 103.493 27.7997C103.519 28.062 103.568 28.3273 103.639 28.5881L103.699 28.9051C103.709 28.9575 103.714 29.01 103.715 29.0602V29.1484L104.042 30.8703L104.862 30.6863C104.965 30.6635 105.089 30.6437 105.232 30.6293C105.413 30.6103 105.513 30.6065 105.565 30.6057H105.607L106.559 30.4985L106.59 30.4917C106.603 30.4902 106.656 30.4894 106.765 30.5077C107.013 30.548 107.25 30.5434 107.469 30.494C107.518 30.4833 107.565 30.4696 107.613 30.4544C107.766 30.4195 107.94 30.3746 108.144 30.3176C108.331 30.2659 108.497 30.2233 108.643 30.1906C109.172 30.0713 109.695 29.9071 110.193 29.7018L110.389 29.6205C110.762 29.4669 111.136 29.3118 111.509 29.1582C111.721 29.102 111.937 29.007 112.155 28.8747C112.356 28.753 112.541 28.6192 112.706 28.4793L113.33 27.9867L113.414 27.8476C113.468 27.7594 113.53 27.6712 113.599 27.5861C113.746 27.4036 113.865 27.2021 113.951 26.984C114.082 26.7148 114.146 26.6213 114.165 26.597C114.306 26.4077 114.437 26.1446 114.576 25.7706L114.586 25.747L114.831 24.9678C114.968 24.5504 115.023 24.0844 114.993 23.5804C114.966 23.144 114.899 22.7502 114.793 22.4066L114.794 22.4081ZM105.218 14.1055C105.238 14.1123 105.286 14.1063 105.362 14.0895C105.646 14.1336 105.88 14.2743 106.063 14.5122C106.247 14.7502 106.363 15.0026 106.414 15.2709C106.555 15.496 106.602 15.7431 106.555 16.0114C106.506 16.2798 106.451 16.5071 106.388 16.6934C106.343 16.8758 106.259 17.0279 106.134 17.1525C106.01 17.2772 105.91 17.3479 105.835 17.3654L105.211 17.5053C105.033 16.9868 104.912 16.4455 104.844 15.8807C104.776 15.3173 104.692 14.7677 104.591 14.2332V14.2317L104.76 14.1937C104.855 14.1724 104.913 14.1701 104.936 14.1861C104.959 14.2028 105.005 14.1815 105.072 14.1237C105.148 14.107 105.196 14.1017 105.217 14.107L105.218 14.1055ZM108.601 25.6102C108.367 25.6832 108.172 25.7478 108.02 25.8018L107.938 25.8322C107.809 25.8793 107.68 25.9249 107.549 25.9721C107.426 26.0169 107.357 26.0375 107.322 26.0481C107.159 26.0686 106.995 26.0884 106.831 26.1089L106.737 25.611L106.405 24.1749C106.322 23.8305 106.255 23.4276 106.206 22.979C106.163 22.5799 106.106 22.1808 106.04 21.7923L106.821 21.6167C106.994 21.6585 107.177 21.6653 107.362 21.638C107.503 21.6174 107.653 21.5893 107.82 21.5528C108.018 21.5482 108.27 21.5657 108.572 21.6075C108.797 21.6395 108.899 21.6965 108.917 21.714L109.023 21.8326L109.129 21.8873C109.135 21.8972 109.143 21.9139 109.152 21.9382C109.245 22.1777 109.284 22.329 109.3 22.4157L109.312 22.4773L109.332 22.5373C109.366 22.6392 109.39 22.7312 109.405 22.8102L109.489 23.2519L109.5 23.2915C109.546 23.4542 109.577 23.6427 109.594 23.8533C109.608 24.0289 109.6 24.1954 109.568 24.349C109.503 24.6439 109.436 24.8895 109.368 25.0796C109.367 25.0841 109.334 25.1693 109.154 25.3137C109.085 25.3563 109.008 25.3981 108.926 25.4399C108.821 25.4924 108.715 25.5486 108.603 25.611L108.601 25.6102Z" fill="#272934"/>
<path d="M78.7544 26.5252L78.7992 26.2991C78.8285 26.1504 78.8548 25.9865 78.8772 25.8084C78.898 25.6336 78.9142 25.4572 78.9235 25.2807C78.9351 25.0656 78.9166 24.8673 78.8679 24.6858C78.871 24.4891 78.871 24.3152 78.8656 24.1564C78.8556 23.8312 78.7791 23.4976 78.6386 23.1657L78.6309 23.1481C78.6101 23.101 78.5954 23.0657 78.5854 23.0397C78.5684 22.7397 78.4441 22.4657 78.2982 22.212C78.2341 22.07 78.1461 21.9246 78.0256 21.7633C77.9276 21.6339 77.8249 21.5011 77.7207 21.3708C77.6033 21.2246 77.4844 21.0868 77.3648 20.9574C77.2729 20.8583 77.2019 20.7818 77.1517 20.7255L77.1015 20.6684L77.0428 20.6213C76.8197 20.439 76.6422 20.2818 76.5132 20.1524C76.4746 20.1129 76.4345 20.0768 76.3943 20.0415C76.5935 19.897 76.7935 19.7289 76.9934 19.5407C77.3478 19.2727 77.6551 18.887 77.9098 18.3887C78.1337 17.9509 78.3229 17.4728 78.4719 16.9669C78.6193 16.4686 78.7259 15.9586 78.7884 15.4519C78.8517 14.941 78.878 14.5234 78.8671 14.1755L78.8648 14.1066L78.854 14.0385C78.8255 13.8562 78.7768 13.6629 78.7073 13.4579C78.6819 13.3848 78.6641 13.3192 78.6541 13.2612C78.6139 12.9445 78.4889 12.6361 78.2819 12.3428C78.1391 12.1428 77.9809 11.9529 77.811 11.7798C77.6643 11.6311 77.5308 11.4924 77.3995 11.3538C77.2845 11.2328 77.2243 11.1479 77.1957 11.0983L77.1123 10.9589L76.9934 10.8555C76.856 10.7362 76.6985 10.6345 76.5186 10.5488C76.4569 10.5211 76.3804 10.4807 76.2909 10.4295C76.1674 10.3354 76.0099 10.2421 75.806 10.1396L75.7528 10.1127L75.6964 10.0934C75.2757 9.94883 74.851 9.7959 74.4318 9.63961C73.9694 9.46819 73.5077 9.32786 73.0599 9.22282L68.8346 8.23633L68.6401 9.22198C68.6323 9.26232 68.6107 9.35643 68.5528 9.53709C68.4857 9.74632 68.4301 10.0051 68.383 10.3253C68.3421 10.4345 68.2981 10.5664 68.2479 10.7387C68.1722 10.9925 68.1066 11.2681 68.0448 11.579C67.9653 11.984 67.8819 12.4344 67.7978 12.9167C67.7206 13.3587 67.6318 13.7368 67.5337 14.0419L67.5152 14.1007L67.5029 14.1612C67.4712 14.3217 67.4349 14.483 67.394 14.6402C67.3554 14.7889 67.3145 14.9267 67.2736 15.0502C67.1555 15.3662 67.0898 15.6804 67.0782 15.9863C67.0597 16.093 67.0396 16.2266 67.0173 16.3846C66.9871 16.5896 66.954 16.8123 66.9184 17.0501C66.8837 17.2744 66.8459 17.4954 66.8042 17.7055L66.6984 18.2408L66.3332 19.9281L66.2082 20.5616C66.1626 20.7936 66.1256 21.0373 66.0993 21.2885C66.0298 21.7406 65.9642 22.1868 65.9024 22.6145C65.8554 22.9363 65.7673 23.2531 65.6392 23.5573L65.6322 23.5732C65.4964 23.9144 65.4253 24.2749 65.4215 24.6429C65.4199 24.7807 65.4006 24.9101 65.362 25.0395L65.3481 25.0866L65.2678 25.4924C65.2346 25.6597 65.2153 25.8277 65.2099 25.9907C65.1875 26.168 65.1536 26.3386 65.1073 26.4966C65.0262 26.7739 64.9675 27.0663 64.932 27.3646L64.8633 27.715C64.8517 27.7721 64.8355 27.8276 64.8154 27.8789L64.7807 27.9688L64.4062 29.8695L65.3118 30.0813C65.4253 30.1073 65.5581 30.1485 65.7094 30.2031C65.9001 30.272 66.0028 30.3165 66.0561 30.3409L66.0985 30.3611L67.1053 30.714L67.14 30.7224C67.1539 30.7274 67.2079 30.7518 67.3114 30.8232C67.5453 30.9846 67.787 31.0938 68.0294 31.1509C68.0827 31.1635 68.1367 31.1736 68.1907 31.1812C68.3598 31.2198 68.5544 31.2593 68.7844 31.3013C68.9944 31.3392 69.1805 31.3778 69.3411 31.4148C69.9263 31.5518 70.5215 31.6383 71.1106 31.6719L71.3414 31.6845C71.7822 31.7106 72.2238 31.7349 72.6647 31.761C72.9017 31.8072 73.1603 31.8156 73.4344 31.7879C73.6876 31.7618 73.9292 31.7173 74.1539 31.6551L74.9885 31.4602L75.1305 31.3602C75.2208 31.2971 75.3204 31.2375 75.4247 31.1854C75.6486 31.0728 75.8508 30.9257 76.0276 30.7468C76.2708 30.5384 76.3743 30.4745 76.4028 30.4585C76.6236 30.3359 76.8637 30.1325 77.1571 29.8224L77.1756 29.8031L77.7423 29.1334C78.0527 28.778 78.2982 28.3326 78.4742 27.8091C78.6263 27.3545 78.7189 26.9235 78.7529 26.5252H78.7544ZM72.4593 13.4822C72.4771 13.499 72.528 13.5167 72.6122 13.536C72.8816 13.7184 73.0615 13.9746 73.1487 14.3032C73.2367 14.6334 73.2522 14.9452 73.1935 15.241C73.2445 15.5376 73.1904 15.8098 73.0321 16.0586C72.8731 16.3064 72.7241 16.5098 72.5844 16.6669C72.4647 16.8299 72.3165 16.9434 72.1405 17.0081C71.9629 17.0745 71.8332 17.0972 71.7498 17.0778L71.0604 16.9173C71.0928 16.3073 71.1916 15.6998 71.3538 15.0956C71.5159 14.4931 71.6556 13.8957 71.7722 13.3058V13.3041L71.9606 13.3478C72.0648 13.3722 72.125 13.3982 72.142 13.4251C72.1582 13.4528 72.213 13.4537 72.3057 13.4285C72.389 13.4478 72.44 13.4654 72.4585 13.4814L72.4593 13.4822ZM71.1754 26.7613C70.9091 26.7218 70.6852 26.6924 70.5092 26.6739L70.4142 26.6646C70.2636 26.6495 70.1146 26.6336 69.9633 26.6176C69.8205 26.6033 69.7418 26.5907 69.7032 26.584C69.5294 26.5252 69.355 26.4655 69.1805 26.4067L69.2886 25.8571L69.5402 24.2438C69.5974 23.8547 69.6939 23.4153 69.8282 22.938C69.9479 22.5128 70.0537 22.0826 70.1455 21.6565L71.0079 21.8582C71.1661 21.9843 71.3476 22.08 71.5468 22.1422C71.6981 22.1893 71.8617 22.2347 72.0455 22.2784C72.247 22.3691 72.4956 22.5094 72.7835 22.6985C72.9982 22.8397 73.0777 22.9472 73.0893 22.9733L73.1479 23.1438L73.2329 23.2506C73.2352 23.264 73.2367 23.2842 73.2352 23.3127C73.2313 23.6001 73.2089 23.7724 73.1896 23.8673L73.1765 23.9354L73.1719 24.006C73.1642 24.1253 73.151 24.2295 73.1333 24.3177L73.0375 24.8051L73.0329 24.8505C73.0128 25.037 72.9673 25.2437 72.8986 25.4647C72.8407 25.6487 72.7642 25.8134 72.6693 25.9538C72.4832 26.221 72.3142 26.4361 72.1675 26.5957C72.1644 26.5991 72.0957 26.6705 71.8556 26.7294C71.7683 26.7394 71.6734 26.7445 71.573 26.7462C71.4456 26.7478 71.3152 26.7537 71.1754 26.763V26.7613Z" fill="#272934"/>
</svg>
