<svg width="984" height="196" viewBox="0 0 984 196" fill="none" xmlns="http://www.w3.org/2000/svg">
<path d="M983.906 195H923.006L917.606 162.9L917.306 162L887.906 161.4L863.306 162.6L858.206 195H799.406L858.206 0.900391H930.806L983.906 195ZM908.306 118.2L895.106 54.6004H891.506L874.706 118.2L891.506 118.5L908.306 118.2Z" fill="#46392D"/>
<path d="M816.834 150L813.234 195H697.734L700.734 138L697.734 0.900391H758.934L755.634 132L756.234 145.8H813.534L816.834 150Z" fill="#46392D"/>
<path d="M702.186 150L698.586 195H583.086L586.086 138L583.086 0.900391H644.286L640.986 132L641.586 145.8H698.886L702.186 150Z" fill="#46392D"/>
<path d="M571.591 99.3004L571.291 130.2C571.091 152.2 563.691 166.1 549.091 177.9C534.491 189.7 513.591 195.6 486.391 195.6C460.191 195.6 440.091 189.7 426.091 177.9C412.291 166.1 405.691 152.2 406.291 130.2L407.191 99.3004L405.391 0.900391H465.691L462.991 122.1C462.791 132.3 464.691 139.7 468.691 144.3C472.891 148.9 479.591 151.2 488.791 151.2C498.191 151.2 504.991 148.9 509.191 144.3C513.391 139.7 515.391 132.3 515.191 122.1L512.491 0.900391H573.691L571.591 99.3004Z" fill="#46392D"/>
<path d="M346.156 47.1004L345.256 81.9004H365.656L400.456 81.0004L403.756 85.2004L400.156 129L361.456 128.1H344.056V132L346.456 195H286.156L289.156 138L286.156 0.900391H415.756L419.056 5.1004L415.156 48.9004L367.156 47.1004H346.156Z" fill="#46392D"/>
<path d="M286.172 195H225.272L219.872 162.9L219.572 162L190.172 161.4L165.572 162.6L160.472 195H101.672L160.472 0.900391H233.072L286.172 195ZM210.572 118.2L197.372 54.6004H193.772L176.972 118.2L193.772 118.5L210.572 118.2Z" fill="#46392D"/>
<path d="M119.1 150L115.5 195H0L3 138L0 0.900391H61.2L57.9 132L58.5 145.8H115.8L119.1 150Z" fill="#46392D"/>
</svg>
