<svg xmlns="http://www.w3.org/2000/svg" version="1.1" xmlns:xlink="http://www.w3.org/1999/xlink" width="120" height="120"><svg width="120" height="120" viewBox="0 0 120 120" fill="none" xmlns="http://www.w3.org/2000/svg">
<path d="M111 75.5981L109.368 96H57L58.3602 70.1577L57 8H84.7481L83.2519 67.4374L83.5239 73.694H109.504L111 75.5981Z" fill="#46392D"></path>
<path d="M48.4815 67.4677L48.7576 79.6627C48.7576 85.4177 47.7912 90.2591 45.8586 94.1871C43.9259 98.1151 40.7048 101.495 36.1953 104.327C31.7778 107.159 25.6117 109.716 17.697 112L10.5185 97.8867V95.6943C15.2121 93.4106 18.4792 91.0356 20.3199 88.5692C22.2525 86.1028 23.2189 82.8599 23.2189 78.8406V70.2082L22.2525 27.3202L10.5185 27.7312L9 25.9499L10.1044 8H50L48.4815 67.4677Z" fill="#46392D"></path>
</svg><style>@media (prefers-color-scheme: light) { :root { filter: none; } }
@media (prefers-color-scheme: dark) { :root { filter: none; } }
</style></svg>