<svg width="24" height="19" viewBox="0 0 24 19" fill="none" xmlns="http://www.w3.org/2000/svg">
<path d="M5.04142 19C3.66864 19 2.48521 18.3551 1.49112 17.0655C0.497041 15.7758 0 14.2097 0 12.3673C0 10.5249 0.686391 8.49818 2.05917 6.28727C3.43195 4.07636 5.30178 1.98061 7.66864 0L10.5799 1.45091L10.8639 2.55636C9.82249 3.52364 8.99408 4.62909 8.3787 5.87273C7.76331 7.0703 7.45562 8.19879 7.45562 9.25818C7.45562 10.3636 7.76331 11.4 8.3787 12.3673C9.04142 13.3345 9.91716 14.0715 11.0059 14.5782L11.0769 15.5455C9.08876 17.8485 7.07692 19 5.04142 19ZM17.9645 19C16.5917 19 15.4083 18.3551 14.4142 17.0655C13.4201 15.7758 12.9231 14.2097 12.9231 12.3673C12.9231 10.5249 13.6095 8.49818 14.9822 6.28727C16.355 4.07636 18.2249 1.98061 20.5917 0L23.503 1.45091L23.787 2.55636C22.7456 3.52364 21.9172 4.62909 21.3018 5.87273C20.6864 7.0703 20.3787 8.19879 20.3787 9.25818C20.3787 10.3636 20.6864 11.4 21.3018 12.3673C21.9645 13.3345 22.8402 14.0715 23.929 14.5782L24 15.5455C22.0118 17.8485 20 19 17.9645 19Z" fill="white"/>
</svg>
