<svg width="790" height="297" viewBox="0 0 790 297" fill="none" xmlns="http://www.w3.org/2000/svg">
<path d="M785.673 172.111L788.746 253.174H704.994L635.073 120.246H630.463L630.078 163.275L633.152 253.174H563.23L567.072 180.179L563.23 4.60704H646.982L716.904 137.535H721.514L719.209 7.29632L789.899 3.07031L785.673 172.111Z" fill="#F6DD00"/>
<path d="M563.249 253.176H485.26L478.345 212.068L477.961 210.916L440.311 210.148L408.808 211.684L402.276 253.176H326.977L402.276 4.60938H495.249L563.249 253.176ZM466.435 154.825L449.531 73.3782H444.921L423.407 154.825L444.921 155.209L466.435 154.825Z" fill="#F6DD00"/>
<path d="M240.616 0C276.729 0 304.647 10.7571 324.368 32.2714C344.089 53.5296 353.95 83.624 353.95 122.555C353.95 165.583 343.065 198.879 321.295 222.442C299.78 246.006 269.174 257.787 229.475 257.787C193.361 257.787 165.444 247.03 145.723 225.516C126.001 203.745 116.141 173.011 116.141 133.312C116.141 90.7954 126.898 58.0117 148.412 34.9607C170.182 11.6536 200.917 0 240.616 0ZM233.701 61.4694C223.712 61.4694 216.156 63.2622 211.034 66.8479C205.911 70.1775 202.198 76.1964 199.893 84.9046C197.844 93.6127 196.819 106.291 196.819 122.939C196.819 144.197 197.972 160.333 200.277 171.346C202.582 182.359 206.424 190.043 211.802 194.397C217.437 198.751 225.633 200.928 236.39 200.928C246.379 200.928 253.934 199.263 259.057 195.934C264.179 192.348 267.765 186.201 269.814 177.493C272.119 168.529 273.272 155.722 273.272 139.074C273.272 118.072 272.119 102.065 269.814 91.0515C267.509 80.0382 263.539 72.3546 257.904 68.0005C252.526 63.6464 244.458 61.4694 233.701 61.4694Z" fill="#F6DD00"/>
<path d="M109.876 171.345L110.645 205.537C110.645 221.673 107.956 235.248 102.577 246.261C97.1984 257.274 88.2341 266.751 75.6841 274.69C63.3902 282.63 46.2301 289.802 24.2035 296.205L4.22602 256.634V250.487C17.2882 244.084 26.3806 237.425 31.503 230.509C36.8816 223.594 39.5709 214.502 39.5709 203.232V179.029L36.8816 58.7792L4.22602 59.9318L0 54.9374L3.07347 4.60938H114.102L109.876 171.345Z" fill="#F6DD00"/>
</svg>
