<svg width="789" height="297" viewBox="0 0 789 297" fill="none" xmlns="http://www.w3.org/2000/svg">
<path d="M784.774 172.111L787.848 253.174H704.096L634.174 120.246H629.564L629.18 163.275L632.253 253.174H562.332L566.174 180.179L562.332 4.60704H646.084L716.005 137.535H720.616L718.31 7.29632L789 3.07031L784.774 172.111Z" fill="#46392D"/>
<path d="M562.351 253.176H484.362L477.446 212.068L477.062 210.916L439.412 210.148L407.909 211.684L401.378 253.176H326.078L401.378 4.60938H494.35L562.351 253.176ZM465.537 154.825L448.633 73.3782H444.022L422.508 154.825L444.022 155.209L465.537 154.825Z" fill="#46392D"/>
<path d="M239.718 0C275.831 0 303.748 10.7571 323.47 32.2714C343.191 53.5296 353.052 83.624 353.052 122.555C353.052 165.583 342.166 198.879 320.396 222.442C298.882 246.006 268.275 257.787 228.576 257.787C192.463 257.787 164.546 247.03 144.824 225.516C125.103 203.745 115.242 173.011 115.242 133.312C115.242 90.7954 125.999 58.0117 147.514 34.9607C169.284 11.6536 200.019 0 239.718 0ZM232.802 61.4694C222.814 61.4694 215.258 63.2622 210.135 66.8479C205.013 70.1775 201.299 76.1964 198.994 84.9046C196.945 93.6127 195.921 106.291 195.921 122.939C195.921 144.197 197.073 160.333 199.378 171.346C201.683 182.359 205.525 190.043 210.904 194.397C216.539 198.751 224.734 200.928 235.492 200.928C245.48 200.928 253.036 199.263 258.158 195.934C263.281 192.348 266.867 186.201 268.916 177.493C271.221 168.529 272.373 155.722 272.373 139.074C272.373 118.072 271.221 102.065 268.916 91.0515C266.61 80.0382 262.641 72.3546 257.006 68.0005C251.627 63.6464 243.559 61.4694 232.802 61.4694Z" fill="#46392D"/>
<path d="M108.978 171.345L109.746 205.537C109.746 221.673 107.057 235.248 101.679 246.261C96.2999 257.274 87.3357 266.751 74.7857 274.69C62.4918 282.63 45.3316 289.802 23.3051 296.205L3.32758 256.634V250.487C16.3898 244.084 25.4821 237.425 30.6046 230.509C35.9832 223.594 38.6724 214.502 38.6724 203.232V179.029L35.9832 58.7792L3.32758 59.9318L-0.898438 54.9374L2.17503 4.60938H113.204L108.978 171.345Z" fill="#46392D"/>
</svg>
