<svg width="1275" height="256" viewBox="0 0 1275 256" fill="none" xmlns="http://www.w3.org/2000/svg">
<path d="M1274.06 251.338H1195.2L1188.2 209.772L1187.82 208.607L1149.75 207.83L1117.89 209.384L1111.29 251.338H1035.15L1111.29 0H1205.3L1274.06 251.338ZM1176.16 151.891L1159.07 69.5356H1154.41L1132.65 151.891L1154.41 152.279L1176.16 151.891Z" fill="#F6DD00"/>
<path d="M1057.71 193.068L1053.05 251.338H903.488L907.373 177.53L903.488 0H982.736L978.463 169.76L979.239 187.63H1053.44L1057.71 193.068Z" fill="#F6DD00"/>
<path d="M909.261 193.068L904.599 251.338H755.039L758.924 177.53L755.039 0H834.286L830.013 169.76L830.79 187.63H904.987L909.261 193.068Z" fill="#F6DD00"/>
<path d="M740.152 127.417L739.764 167.429C739.505 195.917 729.923 217.801 711.017 233.08C692.112 248.36 665.049 256 629.828 256C595.901 256 569.874 248.36 551.746 233.08C533.876 217.801 525.33 195.917 526.107 167.429L527.272 127.417L524.941 0H603.023L599.527 156.941C599.268 170.149 601.728 179.731 606.908 185.687C612.347 191.644 621.022 194.622 632.935 194.622C645.107 194.622 653.913 191.644 659.351 185.687C664.79 179.731 667.38 170.149 667.121 156.941L663.624 0H742.872L740.152 127.417Z" fill="#F6DD00"/>
<path d="M448.24 59.824L447.075 104.886H473.491L518.553 103.721L522.826 109.159L518.164 165.876L468.052 164.71H445.521V169.76L448.629 251.338H370.547L374.432 177.53L370.547 0H538.365L542.638 5.43855L537.588 62.1548L475.433 59.824H448.24Z" fill="#F6DD00"/>
<path d="M370.568 251.338H291.709L284.716 209.772L284.328 208.607L246.258 207.83L214.404 209.384L207.8 251.338H131.66L207.8 0H301.809L370.568 251.338ZM272.674 151.891L255.581 69.5356H250.92L229.165 151.891L250.92 152.279L272.674 151.891Z" fill="#F6DD00"/>
<path d="M154.222 193.068L149.56 251.338H0L3.88467 177.53L0 0H79.2473L74.9742 169.76L75.7511 187.63H149.948L154.222 193.068Z" fill="#F6DD00"/>
</svg>
